<svg width="20" height="21" viewBox="0 0 20 21" fill="none" xmlns="http://www.w3.org/2000/svg">
<g id="Play">
<path id="Vector" d="M19.8 6.39375C19.8 6.39375 19.605 4.9225 19.0056 4.275C18.245 3.42625 17.3925 3.42125 17.0019 3.37312C14.2031 3.15625 10.0044 3.15625 10.0044 3.15625H9.995C9.995 3.15625 5.79688 3.15625 2.99875 3.37312C2.6075 3.42062 1.75625 3.42563 0.995 4.275C0.395625 4.9225 0.2 6.39375 0.2 6.39375C0.2 6.39375 0 8.12 0 9.84625V11.4644C0 13.1919 0.2 14.9175 0.2 14.9175C0.2 14.9175 0.395 16.3881 0.994375 17.0344C1.75563 17.8831 2.75437 17.8575 3.19937 17.9462C4.79938 18.11 10 18.1606 10 18.1606C10 18.1606 14.2025 18.1531 17.0019 17.9388C17.3925 17.8888 18.245 17.8837 19.0056 17.0344C19.6044 16.3881 19.8 14.9175 19.8 14.9175C19.8 14.9175 20 13.1913 20 11.4644V9.84625C20 8.12 19.8 6.39375 19.8 6.39375ZM7.5025 14.4094V6.90688L13.7544 10.6581L7.5025 14.4094Z" fill="#604F23"/>
</g>
</svg>
