<svg xmlns="http://www.w3.org/2000/svg" width="20" height="21" viewBox="0 0 20 21" fill="none">
<path d="M19.8 6.42305C19.8 6.42305 19.605 4.9518 19.0056 4.3043C18.245 3.45555 17.3925 3.45055 17.0019 3.40242C14.2031 3.18555 10.0044 3.18555 10.0044 3.18555H9.995C9.995 3.18555 5.79688 3.18555 2.99875 3.40242C2.6075 3.44992 1.75625 3.45492 0.995 4.3043C0.395625 4.9518 0.2 6.42305 0.2 6.42305C0.2 6.42305 0 8.1493 0 9.87555V11.4937C0 13.2212 0.2 14.9468 0.2 14.9468C0.2 14.9468 0.395 16.4174 0.994375 17.0637C1.75563 17.9124 2.75437 17.8868 3.19937 17.9755C4.79938 18.1393 10 18.1899 10 18.1899C10 18.1899 14.2025 18.1824 17.0019 17.968C17.3925 17.918 18.245 17.913 19.0056 17.0637C19.6044 16.4174 19.8 14.9468 19.8 14.9468C19.8 14.9468 20 13.2205 20 11.4937V9.87555C20 8.1493 19.8 6.42305 19.8 6.42305ZM7.5025 14.4387V6.93617L13.7544 10.6874L7.5025 14.4387Z" fill="#604F23"/>
</svg>