<svg width="24" height="24" viewBox="0 0 24 24" fill="none" xmlns="http://www.w3.org/2000/svg">
<g id="Heart">
<path id="Vector" d="M18.5161 13.6161L18.5027 13.6295L18.4897 13.6433C17.7889 14.388 16.1716 15.6162 14.5961 16.747C13.8292 17.2974 13.1046 17.8022 12.5547 18.185L12.5098 18.2162C12.2559 18.3929 12.0378 18.5448 11.8754 18.6595C11.8112 18.7048 11.7523 18.7469 11.7012 18.784C11.6522 18.7477 11.596 18.7069 11.5348 18.6627C11.3629 18.5386 11.1288 18.3722 10.8551 18.1778L10.7809 18.1251C10.2399 17.7409 9.54418 17.2468 8.80924 16.7134C7.23612 15.5716 5.59989 14.3321 4.88388 13.6161C3.42269 12.1549 3.25 10.5531 3.25 9.4C3.25 7.10532 5.1753 5.25 7.4 5.25C8.76918 5.25 10.0012 5.93233 10.7828 7.02655L11.8 8.45058L12.8172 7.02655C13.6149 5.90974 14.8563 5.25 16 5.25C18.3096 5.25 20.15 7.09036 20.15 9.4C20.15 10.5531 19.9773 12.1549 18.5161 13.6161Z" stroke="#050505" stroke-width="2.5"/>
</g>
</svg>
