<svg width="22" height="22" viewBox="0 0 22 22" fill="none" xmlns="http://www.w3.org/2000/svg">
<g id="icon/linkedin">
<path id="vector" d="M19.25 3.96324V18.0368C19.25 18.3585 19.1222 18.6671 18.8947 18.8947C18.6671 19.1222 18.3585 19.25 18.0368 19.25H3.96324C3.64147 19.25 3.33287 19.1222 3.10535 18.8947C2.87782 18.6671 2.75 18.3585 2.75 18.0368V3.96324C2.75 3.64147 2.87782 3.33287 3.10535 3.10535C3.33287 2.87782 3.64147 2.75 3.96324 2.75H18.0368C18.3585 2.75 18.6671 2.87782 18.8947 3.10535C19.1222 3.33287 19.25 3.64147 19.25 3.96324ZM7.60294 9.05882H5.17647V16.8235H7.60294V9.05882ZM7.82132 6.38971C7.8226 6.20616 7.78772 6.02417 7.71866 5.85411C7.6496 5.68405 7.54772 5.52925 7.41884 5.39857C7.28995 5.26788 7.13659 5.16386 6.9675 5.09245C6.79842 5.02103 6.61693 4.98362 6.43338 4.98235H6.38971C6.01645 4.98235 5.65849 5.13063 5.39456 5.39456C5.13063 5.65849 4.98235 6.01645 4.98235 6.38971C4.98235 6.76296 5.13063 7.12092 5.39456 7.38485C5.65849 7.64878 6.01645 7.79706 6.38971 7.79706C6.57326 7.80157 6.75591 7.76988 6.92721 7.70378C7.09851 7.63768 7.25511 7.53848 7.38806 7.41184C7.52101 7.2852 7.6277 7.13361 7.70204 6.96572C7.77638 6.79783 7.81692 6.61694 7.82132 6.43338V6.38971ZM16.8235 12.1065C16.8235 9.77221 15.3385 8.86471 13.8632 8.86471C13.3802 8.84052 12.8993 8.9434 12.4684 9.16309C12.0375 9.38279 11.6718 9.71161 11.4076 10.1168H11.3397V9.05882H9.05882V16.8235H11.4853V12.6937C11.4502 12.2707 11.5835 11.851 11.8561 11.5257C12.1287 11.2004 12.5186 10.9958 12.9412 10.9563H13.0334C13.805 10.9563 14.3776 11.4416 14.3776 12.6646V16.8235H16.8041L16.8235 12.1065Z" fill="#F5F7F8"/>
</g>
</svg>
