<svg width="22" height="14" viewBox="0 0 22 14" fill="none" xmlns="http://www.w3.org/2000/svg">
<g id="Group">
<path id="Vector" d="M12.4093 7.20868C12.4093 10.6652 9.63136 13.4672 6.20476 13.4672C2.77817 13.4672 0 10.6645 0 7.20868C0 3.75282 2.77796 0.949951 6.20476 0.949951C9.63157 0.949951 12.4093 3.75219 12.4093 7.20868Z" fill="#F5F7F8"/>
<path id="Vector_2" d="M19.2155 7.20876C19.2155 10.4623 17.8265 13.1009 16.1131 13.1009C14.3997 13.1009 13.0107 10.4623 13.0107 7.20876C13.0107 3.95522 14.3995 1.31665 16.1129 1.31665C17.8263 1.31665 19.2153 3.95437 19.2153 7.20876" fill="#F5F7F8"/>
<path id="Vector_3" d="M22.0004 7.20857C22.0004 10.1229 21.5119 12.487 20.9093 12.487C20.3066 12.487 19.8184 10.1236 19.8184 7.20857C19.8184 4.29356 20.3068 1.93018 20.9093 1.93018C21.5117 1.93018 22.0004 4.29335 22.0004 7.20857Z" fill="#F5F7F8"/>
</g>
</svg>
