<svg width="22" height="22" viewBox="0 0 22 22" fill="none" xmlns="http://www.w3.org/2000/svg">
<g id="Social">
<path id="Vector" d="M14.7131 10.3974C14.6421 10.3634 14.5699 10.3306 14.4968 10.2992C14.3694 7.9525 13.0871 6.60902 10.934 6.59527C10.9243 6.59521 10.9146 6.59521 10.9048 6.59521C9.617 6.59521 8.54593 7.14492 7.8867 8.14522L9.07083 8.95751C9.5633 8.21032 10.3362 8.05104 10.9054 8.05104C10.912 8.05104 10.9186 8.05104 10.9251 8.0511C11.634 8.05562 12.169 8.26174 12.5152 8.6637C12.7672 8.95635 12.9357 9.36074 13.0191 9.87111C12.3906 9.76428 11.7108 9.73143 10.9841 9.7731C8.93708 9.89101 7.62107 11.0849 7.70946 12.7438C7.75431 13.5853 8.17353 14.3093 8.88984 14.7822C9.49548 15.182 10.2755 15.3775 11.0862 15.3332C12.1568 15.2745 12.9966 14.8661 13.5825 14.1192C14.0275 13.552 14.309 12.817 14.4332 11.8908C14.9435 12.1987 15.3216 12.6039 15.5304 13.091C15.8855 13.919 15.9062 15.2797 14.796 16.389C13.8233 17.3607 12.654 17.7812 10.8869 17.7941C8.92673 17.7796 7.44427 17.151 6.48042 15.9257C5.57786 14.7783 5.1114 13.1211 5.094 11C5.1114 8.87887 5.57786 7.22164 6.48042 6.07429C7.44427 4.84901 8.9267 4.22039 10.8869 4.20582C12.8613 4.2205 14.3696 4.85215 15.3703 6.08334C15.861 6.68711 16.231 7.44638 16.4749 8.33167L17.8625 7.96144C17.5669 6.87175 17.1017 5.93276 16.4687 5.15402C15.1857 3.57557 13.3094 2.76677 10.8917 2.75H10.882C8.46932 2.76671 6.61397 3.57859 5.36755 5.16306C4.25841 6.57305 3.68628 8.53494 3.66705 10.9942L3.66699 11L3.66705 11.0058C3.68628 13.465 4.25841 15.427 5.36755 16.837C6.61397 18.4214 8.46932 19.2333 10.882 19.25H10.8917C13.0368 19.2351 14.5487 18.6735 15.7943 17.4291C17.424 15.801 17.3749 13.7602 16.8378 12.5074C16.4524 11.609 15.7178 10.8794 14.7131 10.3974ZM11.0095 13.8795C10.1123 13.93 9.18026 13.5273 9.1343 12.6648C9.10024 12.0252 9.58944 11.3116 11.0646 11.2266C11.2335 11.2169 11.3993 11.2121 11.5622 11.2121C12.098 11.2121 12.5993 11.2641 13.055 11.3638C12.885 13.4866 11.8879 13.8313 11.0095 13.8795Z" fill="#F5F7F8"/>
</g>
</svg>
