<svg width="22" height="22" viewBox="0 0 22 22" fill="none" xmlns="http://www.w3.org/2000/svg">
<g id="icon/youtube">
<path id="vector" fill-rule="evenodd" clip-rule="evenodd" d="M18.1424 4.96351C18.9308 5.17532 19.5544 5.79899 19.7663 6.58739C20.1546 8.02299 20.1663 11.0001 20.1663 11.0001C20.1663 11.0001 20.1663 13.989 19.778 15.4128C19.5662 16.2012 18.9426 16.8249 18.1541 17.0367C16.7303 17.425 10.9997 17.425 10.9997 17.425C10.9997 17.425 5.26904 17.425 3.8452 17.0367C3.0568 16.8249 2.43314 16.2012 2.22133 15.4128C1.83301 13.9772 1.83301 11.0001 1.83301 11.0001C1.83301 11.0001 1.83301 8.02299 2.20956 6.59916C2.42137 5.81075 3.04503 5.18709 3.83344 4.97528C5.25727 4.58696 10.9879 4.5752 10.9879 4.5752C10.9879 4.5752 16.7185 4.5752 18.1424 4.96351ZM13.9179 11.0001L9.16399 13.7536V8.24657L13.9179 11.0001Z" fill="#F5F7F8"/>
</g>
</svg>
